<svg xmlns="http://www.w3.org/2000/svg" width="143.32" height="98.061" viewBox="0 0 143.32 98.061">
  <g id="HH" transform="translate(-0.965 -32.722)">
    <path id="Pfad_1" data-name="Pfad 1" d="M97.432,66.539V40.784l3.372-3.373H90.355l3.373,3.373V66.539Z" transform="translate(-22.903 -1.201)" fill="#fdfdfd"/>
    <path id="Pfad_2" data-name="Pfad 2" d="M97.432,86.729v23.512l3.372,3.372H90.355l3.373-3.372V86.729l-3.373-3.373H100.8Z" transform="translate(-22.903 -12.973)" fill="#fdfdfd"/>
    <rect id="Rechteck_2" data-name="Rechteck 2" width="64.451" height="3.704" transform="translate(40.53 62.852)" fill="#fdfdfd"/>
    <rect id="Rechteck_3" data-name="Rechteck 3" width="64.451" height="3.703" transform="translate(40.451 83.66)" fill="#fdfdfd"/>
    <path id="Pfad_3" data-name="Pfad 3" d="M50.109,32.722H120.8V104.2H49.321V32.722ZM119.227,34.3H50.9v68.329h68.33Z" transform="translate(-12.389)" fill="#fdfdfd"/>
    <path id="Pfad_4" data-name="Pfad 4" d="M54.159,73.919h5.225l-5.225-5.224h0Z" transform="translate(-13.629 -9.217)" fill="#fdfdfd"/>
    <path id="Pfad_5" data-name="Pfad 5" d="M139.012,73.919h-5.224l5.224-5.224h0Z" transform="translate(-34.031 -9.217)" fill="#fdfdfd"/>
    <path id="Pfad_6" data-name="Pfad 6" d="M134.6,86.731v23.5l-3.375,3.374h7.079V83.357h-7.079Z" transform="translate(-33.375 -12.973)" fill="#fdfdfd"/>
    <path id="Pfad_7" data-name="Pfad 7" d="M57.758,86.731v23.5l3.374,3.374H54.054V83.357h7.078Z" transform="translate(-13.602 -12.973)" fill="#fdfdfd"/>
    <g id="Gruppe_1" data-name="Gruppe 1" transform="translate(0.965 112.808)">
      <path id="Pfad_8" data-name="Pfad 8" d="M.965,141.714v-.979H6.444v.979H4.214v9.019H3.195v-9.019Z" transform="translate(-0.965 -140.483)" fill="#fdfdfd"/>
      <path id="Pfad_9" data-name="Pfad 9" d="M11.354,140.735h1v4.194h5.091v-4.194h1v10h-1v-4.825H12.353v4.825h-1Z" transform="translate(-3.627 -140.483)" fill="#fdfdfd"/>
      <path id="Pfad_10" data-name="Pfad 10" d="M25.27,140.735H31v.979H26.27v3.134h4.69v.978H26.27v3.929h4.69v.978H25.27Z" transform="translate(-7.192 -140.483)" fill="#fdfdfd"/>
      <path id="Pfad_11" data-name="Pfad 11" d="M41.562,140.735h1v4.194h5.091v-4.194h1v10h-1v-4.825H42.561v4.825h-1Z" transform="translate(-11.367 -140.483)" fill="#fdfdfd"/>
      <path id="Pfad_12" data-name="Pfad 12" d="M55.478,140.735h5.73v.979h-4.73v3.134h4.69v.978h-4.69v3.929h4.69v.978H55.479v-10Z" transform="translate(-14.932 -140.483)" fill="#fdfdfd"/>
      <path id="Pfad_13" data-name="Pfad 13" d="M66.68,140.735h1.991a12.042,12.042,0,0,1,2.257.137,2.569,2.569,0,0,1,1.447.875,2.493,2.493,0,0,1,.558,1.65,2.666,2.666,0,0,1-.385,1.436,2.392,2.392,0,0,1-1.1.936,5.038,5.038,0,0,1-1.971.324l3.6,4.642H71.839l-3.6-4.642h-.565v4.642h-1Zm1,.979v3.4l1.722.014a4.293,4.293,0,0,0,1.481-.19,1.539,1.539,0,0,0,.749-.608,1.691,1.691,0,0,0,.269-.935,1.622,1.622,0,0,0-.272-.914,1.515,1.515,0,0,0-.715-.588,4.356,4.356,0,0,0-1.47-.176H67.679Z" transform="translate(-17.802 -140.483)" fill="#fdfdfd"/>
      <path id="Pfad_14" data-name="Pfad 14" d="M83.7,140.4a5.188,5.188,0,0,1,3.8,1.516,5.256,5.256,0,0,1-3.72,8.986,5.119,5.119,0,0,1-3.754-1.523,5.007,5.007,0,0,1-1.531-3.684,5.328,5.328,0,0,1,.7-2.672A5.15,5.15,0,0,1,83.7,140.4Zm.044.971a4.125,4.125,0,0,0-2.1.578,4.167,4.167,0,0,0-1.552,1.558,4.325,4.325,0,0,0-.558,2.184,4.206,4.206,0,0,0,4.214,4.238,4.28,4.28,0,0,0,2.155-.565,4.04,4.04,0,0,0,1.546-1.544A4.335,4.335,0,0,0,88,145.64a4.236,4.236,0,0,0-.555-2.153,4.136,4.136,0,0,0-1.563-1.541A4.233,4.233,0,0,0,83.742,141.368Z" transform="translate(-20.829 -140.396)" fill="#fdfdfd"/>
      <path id="Pfad_15" data-name="Pfad 15" d="M96.459,140.735h1v9.033h3.848v.965H96.459Z" transform="translate(-25.432 -140.483)" fill="#fdfdfd"/>
      <path id="Pfad_16" data-name="Pfad 16" d="M106.227,150.733v-10H108.3a10.6,10.6,0,0,1,3.256.36,4.356,4.356,0,0,1,2.274,1.767,5.379,5.379,0,0,1,.819,3A5.256,5.256,0,0,1,114,148.5a4.16,4.16,0,0,1-1.686,1.686,6.35,6.35,0,0,1-2.905.543h-3.181Zm.958-.945h1.156a10.747,10.747,0,0,0,2.875-.259,3.314,3.314,0,0,0,1.774-1.32,4.07,4.07,0,0,0,.646-2.333,4.28,4.28,0,0,0-.7-2.472A3.532,3.532,0,0,0,110.985,142a11.82,11.82,0,0,0-3.092-.285h-.707v8.075Z" transform="translate(-27.935 -140.483)" fill="#fdfdfd"/>
      <path id="Pfad_17" data-name="Pfad 17" d="M126.44,140.735h1v4.194h5.091v-4.194h1v10h-1v-4.825h-5.091v4.825h-1Z" transform="translate(-33.113 -140.483)" fill="#fdfdfd"/>
      <path id="Pfad_18" data-name="Pfad 18" d="M144.956,140.4a5.188,5.188,0,0,1,3.8,1.516,5.256,5.256,0,0,1-3.72,8.986,5.121,5.121,0,0,1-3.755-1.523,5.009,5.009,0,0,1-1.53-3.684,5.327,5.327,0,0,1,.7-2.672,5.153,5.153,0,0,1,4.507-2.624Zm.044.971a4.267,4.267,0,0,0-3.656,2.136,4.326,4.326,0,0,0-.559,2.184A4.206,4.206,0,0,0,145,149.926a4.275,4.275,0,0,0,2.154-.565,4.05,4.05,0,0,0,1.546-1.544,4.343,4.343,0,0,0,.555-2.177,4.236,4.236,0,0,0-.555-2.153,4.146,4.146,0,0,0-1.563-1.541A4.232,4.232,0,0,0,145,141.368Z" transform="translate(-36.524 -140.396)" fill="#fdfdfd"/>
      <path id="Pfad_19" data-name="Pfad 19" d="M157.1,150.733l1.431-10h.163l4.065,8.2,4.025-8.2h.16l1.439,10h-.98l-.988-7.15-3.535,7.15h-.256l-3.578-7.205-.982,7.205Z" transform="translate(-40.97 -140.483)" fill="#fdfdfd"/>
      <path id="Pfad_20" data-name="Pfad 20" d="M176.047,140.735h5.729v.979h-4.73v3.134h4.69v.978h-4.69v3.929h4.69v.978h-5.688v-10Z" transform="translate(-45.823 -140.483)" fill="#fdfdfd"/>
      <path id="Pfad_21" data-name="Pfad 21" d="M185.787,148.784l.85-.51q.9,1.651,2.073,1.652a1.991,1.991,0,0,0,.945-.234,1.659,1.659,0,0,0,.672-.629,1.63,1.63,0,0,0,.231-.836,1.692,1.692,0,0,0-.34-.986,8.143,8.143,0,0,0-1.713-1.6,8.736,8.736,0,0,1-1.556-1.366,2.5,2.5,0,0,1-.531-1.53,2.325,2.325,0,0,1,.313-1.189,2.229,2.229,0,0,1,.881-.846,2.532,2.532,0,0,1,1.233-.309,2.625,2.625,0,0,1,1.322.35,4.532,4.532,0,0,1,1.3,1.287l-.816.619a3.907,3.907,0,0,0-.962-.985,1.659,1.659,0,0,0-.867-.238,1.372,1.372,0,0,0-.988.367,1.2,1.2,0,0,0-.385.9,1.544,1.544,0,0,0,.136.633,2.342,2.342,0,0,0,.5.666q.2.19,1.291,1a7.271,7.271,0,0,1,1.781,1.706,2.74,2.74,0,0,1,.483,1.5,2.549,2.549,0,0,1-.826,1.889,2.773,2.773,0,0,1-2.008.8,2.952,2.952,0,0,1-1.652-.486A4.437,4.437,0,0,1,185.787,148.784Z" transform="translate(-48.319 -140.396)" fill="#fdfdfd"/>
    </g>
    <g id="Gruppe_2" data-name="Gruppe 2" transform="translate(2.092 126.327)">
      <path id="Pfad_22" data-name="Pfad 22" d="M2.48,158.716h.845a5.116,5.116,0,0,1,.957.057,1.093,1.093,0,0,1,.614.371,1.057,1.057,0,0,1,.237.7,1.128,1.128,0,0,1-.163.608,1.015,1.015,0,0,1-.466.4,2.152,2.152,0,0,1-.837.138l1.526,1.969H4.669l-1.526-1.969H2.9v1.969H2.48Zm.424.415v1.441l.73.006a1.83,1.83,0,0,0,.628-.08.649.649,0,0,0,.318-.258.719.719,0,0,0,.114-.4.689.689,0,0,0-.115-.388.645.645,0,0,0-.3-.25,1.846,1.846,0,0,0-.624-.075Z" transform="translate(-2.48 -158.609)" fill="#fdfdfd"/>
      <path id="Pfad_23" data-name="Pfad 23" d="M11.226,158.716h2.431v.415H11.65v1.329h1.99v.416H11.65v1.666h1.99v.416H11.226Z" transform="translate(-4.721 -158.609)" fill="#fdfdfd"/>
      <path id="Pfad_24" data-name="Pfad 24" d="M21.036,158.716l1.978,4.241h-.458l-.667-1.4H20.062l-.66,1.4h-.473l2-4.241Zm-.054.9-.727,1.535h1.45Z" transform="translate(-6.694 -158.609)" fill="#fdfdfd"/>
      <path id="Pfad_25" data-name="Pfad 25" d="M29.26,158.716h.424v3.831h1.632v.41H29.26Z" transform="translate(-9.341 -158.609)" fill="#fdfdfd"/>
      <path id="Pfad_26" data-name="Pfad 26" d="M43.188,158.716h2.431v.415H43.612v1.329H45.6v.416h-1.99v1.666H45.6v.416H43.188v-4.242Z" transform="translate(-12.91 -158.609)" fill="#fdfdfd"/>
      <path id="Pfad_27" data-name="Pfad 27" d="M50.805,162.13l.36-.216q.38.7.88.7a.836.836,0,0,0,.4-.1.7.7,0,0,0,.286-.266.688.688,0,0,0,.1-.355.724.724,0,0,0-.144-.419,3.46,3.46,0,0,0-.727-.681,3.7,3.7,0,0,1-.66-.579,1.058,1.058,0,0,1-.225-.649.988.988,0,0,1,.133-.505.948.948,0,0,1,.373-.359,1.081,1.081,0,0,1,.524-.131,1.115,1.115,0,0,1,.561.148,1.935,1.935,0,0,1,.553.546l-.346.263a1.634,1.634,0,0,0-.408-.419.7.7,0,0,0-.367-.1.578.578,0,0,0-.419.156.508.508,0,0,0-.163.383.645.645,0,0,0,.057.268,1,1,0,0,0,.21.283q.084.08.547.423a3.059,3.059,0,0,1,.756.724,1.16,1.16,0,0,1,.2.637,1.084,1.084,0,0,1-.35.8,1.177,1.177,0,0,1-.852.34,1.252,1.252,0,0,1-.7-.206A1.884,1.884,0,0,1,50.805,162.13Z" transform="translate(-14.862 -158.572)" fill="#fdfdfd"/>
      <path id="Pfad_28" data-name="Pfad 28" d="M58.737,159.131v-.415h2.324v.415h-.946v3.827h-.433v-3.827Z" transform="translate(-16.894 -158.609)" fill="#fdfdfd"/>
      <path id="Pfad_29" data-name="Pfad 29" d="M68.241,158.716l1.978,4.241h-.457l-.667-1.4H67.266l-.661,1.4h-.473l2-4.241Zm-.054.9-.727,1.535h1.45Z" transform="translate(-18.789 -158.609)" fill="#fdfdfd"/>
      <path id="Pfad_30" data-name="Pfad 30" d="M75.9,159.131v-.415h2.324v.415h-.946v3.827h-.432v-3.827Z" transform="translate(-21.291 -158.609)" fill="#fdfdfd"/>
      <path id="Pfad_31" data-name="Pfad 31" d="M83.8,158.716h2.431v.415H84.227v1.329h1.99v.416h-1.99v1.666h1.99v.416H83.8Z" transform="translate(-23.316 -158.609)" fill="#fdfdfd"/>
      <path id="Pfad_32" data-name="Pfad 32" d="M98.313,162.957v-4.241h.879a4.488,4.488,0,0,1,1.381.152,1.843,1.843,0,0,1,.965.75,2.277,2.277,0,0,1,.348,1.272,2.229,2.229,0,0,1-.276,1.122,1.762,1.762,0,0,1-.715.715,2.693,2.693,0,0,1-1.233.231H98.313Zm.406-.4h.491a4.624,4.624,0,0,0,1.22-.109,1.406,1.406,0,0,0,.752-.561,1.723,1.723,0,0,0,.274-.989,1.819,1.819,0,0,0-.3-1.049,1.5,1.5,0,0,0-.828-.6,5.009,5.009,0,0,0-1.311-.121h-.3v3.425Z" transform="translate(-27.034 -158.609)" fill="#fdfdfd"/>
      <path id="Pfad_33" data-name="Pfad 33" d="M108.178,158.716h2.431v.415H108.6v1.329h1.99v.416H108.6v1.666h1.99v.416h-2.414v-4.242Z" transform="translate(-29.561 -158.609)" fill="#fdfdfd"/>
      <path id="Pfad_34" data-name="Pfad 34" d="M115.951,158.716h.462l1.406,3.276,1.429-3.276h.461l-1.845,4.241h-.092Z" transform="translate(-31.553 -158.609)" fill="#fdfdfd"/>
      <path id="Pfad_35" data-name="Pfad 35" d="M125.918,158.716h2.431v.415h-2.007v1.329h1.99v.416h-1.99v1.666h1.99v.416h-2.413v-4.242Z" transform="translate(-34.107 -158.609)" fill="#fdfdfd"/>
      <path id="Pfad_36" data-name="Pfad 36" d="M134.125,158.716h.424v3.831h1.632v.41h-2.057v-4.241Z" transform="translate(-36.209 -158.609)" fill="#fdfdfd"/>
      <path id="Pfad_37" data-name="Pfad 37" d="M143.7,158.573a2.2,2.2,0,0,1,1.613.643,2.229,2.229,0,0,1-1.578,3.812,2.172,2.172,0,0,1-1.592-.646,2.123,2.123,0,0,1-.649-1.563,2.257,2.257,0,0,1,.3-1.133,2.179,2.179,0,0,1,1.912-1.113Zm.019.411a1.744,1.744,0,0,0-.892.245,1.768,1.768,0,0,0-.659.661,1.837,1.837,0,0,0-.237.926,1.784,1.784,0,0,0,1.787,1.8,1.817,1.817,0,0,0,.914-.239,1.722,1.722,0,0,0,.655-.655,1.843,1.843,0,0,0,.236-.924,1.8,1.8,0,0,0-.236-.913,1.754,1.754,0,0,0-.663-.654A1.791,1.791,0,0,0,143.72,158.984Z" transform="translate(-38.097 -158.572)" fill="#fdfdfd"/>
      <path id="Pfad_38" data-name="Pfad 38" d="M152.6,158.716h.845a4.845,4.845,0,0,1,.98.063,1.082,1.082,0,0,1,.594.367,1.183,1.183,0,0,1,.006,1.4,1.107,1.107,0,0,1-.62.371,5.487,5.487,0,0,1-1.078.069h-.3v1.972H152.6v-4.24Zm.424.415v1.439l.718.009a1.873,1.873,0,0,0,.637-.079.659.659,0,0,0,.318-.257.725.725,0,0,0,0-.785.643.643,0,0,0-.3-.252,1.829,1.829,0,0,0-.618-.075h-.75Z" transform="translate(-40.942 -158.609)" fill="#fdfdfd"/>
      <path id="Pfad_39" data-name="Pfad 39" d="M160.994,162.957l.607-4.241h.069l1.724,3.48,1.708-3.48h.068l.61,4.241h-.417l-.419-3.033-1.5,3.033h-.109L161.82,159.9l-.417,3.056Z" transform="translate(-43.093 -158.609)" fill="#fdfdfd"/>
      <path id="Pfad_40" data-name="Pfad 40" d="M172.507,158.716h2.431v.415h-2.006v1.329h1.99v.416h-1.99v1.666h1.99v.416h-2.414v-4.242Z" transform="translate(-46.043 -158.609)" fill="#fdfdfd"/>
      <path id="Pfad_41" data-name="Pfad 41" d="M180.718,162.957v-4.241h.092l2.823,3.251v-3.251h.418v4.241h-.094l-2.8-3.212v3.212Z" transform="translate(-48.147 -158.609)" fill="#fdfdfd"/>
      <path id="Pfad_42" data-name="Pfad 42" d="M189.975,159.131v-.415H192.3v.415h-.945v3.827h-.433v-3.827Z" transform="translate(-50.519 -158.609)" fill="#fdfdfd"/>
    </g>
  </g>
</svg>
