<svg xmlns="http://www.w3.org/2000/svg" width="164.679" height="141.252" viewBox="0 0 164.679 141.252">
  <g id="oky" transform="translate(-10.58 -18.67)">
    <g id="Gruppe_131" data-name="Gruppe 131" transform="translate(29.313 151.037)">
      <path id="Pfad_105" data-name="Pfad 105" d="M36.346,169.572H33.339l-.724,2.2h-1.6l3.017-8.582h1.632l3.017,8.582h-1.6Zm-1.5-4.9s-.193.844-.367,1.33l-.761,2.292h2.246L35.2,166c-.156-.486-.339-1.33-.339-1.33Z" transform="translate(-31.01 -163.043)" fill="#c7c7c7"/>
      <path id="Pfad_106" data-name="Pfad 106" d="M45.19,163.19h2.769a4.033,4.033,0,0,1,1.724.238,2.42,2.42,0,0,1,1.4,2.347,2.475,2.475,0,0,1-1.449,2.347v.027a2.2,2.2,0,0,1,.293.422l1.76,3.2H49.949l-1.705-3.2H46.749v3.2H45.19V163.19Zm2.962,4.025a1.248,1.248,0,0,0,1.357-1.357c0-.825-.348-1.33-1.568-1.33H46.758v2.687Z" transform="translate(-32.188 -163.043)" fill="#c7c7c7"/>
      <path id="Pfad_107" data-name="Pfad 107" d="M60.155,164.529H57.34V163.19h7.189v1.339H61.714v7.234H60.155Z" transform="translate(-33.198 -163.043)" fill="#c7c7c7"/>
      <path id="Pfad_108" data-name="Pfad 108" d="M79.716,167.194v-.027a1.934,1.934,0,0,1-1.091-1.871c0-1.522,1.22-2.256,2.7-2.256a5.422,5.422,0,0,1,1.128.147l-.376,1.229a2.723,2.723,0,0,0-.568-.073,1.172,1.172,0,0,0-1.32,1.146c0,.5.275,1.137,1.3,1.137h1.366v-1.109h1.531v1.109H85.5v1.357H84.393V169a2.791,2.791,0,0,1-3.081,2.916c-1.861,0-3.072-1.128-3.072-2.577A2.289,2.289,0,0,1,79.716,167.194Zm1.614,3.283a1.411,1.411,0,0,0,1.55-1.568v-.926H81.431c-.954,0-1.568.422-1.568,1.256A1.317,1.317,0,0,0,81.33,170.476Z" transform="translate(-34.934 -163.031)" fill="#c7c7c7"/>
      <path id="Pfad_109" data-name="Pfad 109" d="M100.34,163.19h2.925a4.287,4.287,0,1,1,0,8.573H100.34Zm2.833,7.244a2.95,2.95,0,0,0,0-5.9H101.89v5.9Z" transform="translate(-36.77 -163.043)" fill="#c7c7c7"/>
      <path id="Pfad_110" data-name="Pfad 110" d="M114.69,163.19h5.135v1.339h-3.576v2.246h2.888v1.339h-2.888v2.311h3.769v1.339H114.69Z" transform="translate(-37.962 -163.043)" fill="#c7c7c7"/>
      <path id="Pfad_111" data-name="Pfad 111" d="M127.014,169.559a3.418,3.418,0,0,0,2.136.908c.651,0,1.247-.339,1.247-1.036,0-1.531-4.044-1.265-4.044-3.906a2.63,2.63,0,0,1,2.879-2.485,3.623,3.623,0,0,1,2.558.917l-.679,1.265a3.14,3.14,0,0,0-1.9-.752c-.724,0-1.293.422-1.293,1.027,0,1.522,4.034,1.146,4.034,3.888a2.56,2.56,0,0,1-2.824,2.512,4.161,4.161,0,0,1-2.962-1.174Z" transform="translate(-38.916 -163.031)" fill="#c7c7c7"/>
      <path id="Pfad_112" data-name="Pfad 112" d="M138.79,163.19h1.559v8.582H138.79Z" transform="translate(-39.964 -163.043)" fill="#c7c7c7"/>
      <path id="Pfad_113" data-name="Pfad 113" d="M151.269,163.03a4.677,4.677,0,0,1,3.191,1.091l-.77,1.164a3.683,3.683,0,0,0-2.283-.825,2.784,2.784,0,0,0-2.952,2.952,2.867,2.867,0,0,0,2.879,3.072,3.239,3.239,0,0,0,2.155-.9v-1h-1.32v-1.339h2.714v4.52h-1.33v-.413c0-.183.009-.367.009-.367h-.028a3.648,3.648,0,0,1-2.485.917,4.228,4.228,0,0,1-4.209-4.447A4.341,4.341,0,0,1,151.269,163.03Z" transform="translate(-40.633 -163.03)" fill="#c7c7c7"/>
      <path id="Pfad_114" data-name="Pfad 114" d="M162.11,163.19h1.559l3.246,4.951a12.376,12.376,0,0,1,.715,1.33h.028s-.083-.825-.083-1.33V163.19h1.55v8.582h-1.55l-3.246-4.942a12.374,12.374,0,0,1-.715-1.33h-.028s.083.825.083,1.33v4.942H162.11Z" transform="translate(-41.902 -163.043)" fill="#c7c7c7"/>
    </g>
    <g id="Gruppe_132" data-name="Gruppe 132" transform="translate(10.58 18.67)">
      <path id="Pfad_115" data-name="Pfad 115" d="M18.836,147.136l-1.816-4.227a3.546,3.546,0,0,1,2.072-4.823,3.569,3.569,0,0,1,4.951,1.8l.743,1.733,3.145-1.348L29,142.762Zm3.3-5.822a1.349,1.349,0,0,0-1.953-.7,1.316,1.316,0,0,0-.825,1.843l.541,1.265,2.76-1.183Z" transform="translate(-11.088 -28.56)" fill="#c7c7c7"/>
      <path id="Pfad_116" data-name="Pfad 116" d="M19.355,116.833l.394,3.429,2.384.394.321,2.769L11.02,120.959l-.33-2.833,10.572-5.016.321,2.769Zm-5.987,2.439s1.229.11,1.944.229l2.21.385-.248-2.173-2.063.862c-.669.284-1.843.669-1.843.669Z" transform="translate(-10.589 -26.516)" fill="#c7c7c7"/>
      <path id="Pfad_117" data-name="Pfad 117" d="M10.58,98.095l.614-3.805a5.609,5.609,0,0,1,.605-2.081,3.227,3.227,0,0,1,3.5-1.513A3.362,3.362,0,0,1,18.025,92.8l.028.009a6.8,6.8,0,0,1,.724-.312l4.163-1.513-.477,2.98-4,1.357-.2,1.256,3.686.587-.431,2.677Zm5.575-3.044a1.264,1.264,0,0,0-1.128-1.6c-.825-.128-1.366.1-1.577,1.44l-.147.9,2.659.422Z" transform="translate(-10.58 -24.649)" fill="#c7c7c7"/>
      <path id="Pfad_118" data-name="Pfad 118" d="M20.139,72.042,18.7,75.077l-2.1-1,4.044-8.527,2.1,1L21.3,69.584l7.913,3.75-1.164,2.448Z" transform="translate(-11.08 -22.565)" fill="#c7c7c7"/>
      <path id="Pfad_119" data-name="Pfad 119" d="M46.221,36.12A5.6,5.6,0,0,1,54.244,37.2a5.793,5.793,0,1,1-9.3,6.914A5.6,5.6,0,0,1,46.221,36.12Zm5.355,7.2A3.128,3.128,0,0,0,52,38.87a3,3,0,1,0-4.8,3.576A3.12,3.12,0,0,0,51.576,43.317Z" transform="translate(-13.34 -20.019)" fill="#c7c7c7"/>
      <path id="Pfad_120" data-name="Pfad 120" d="M66.44,24.971l6.382-2.311.789,2.182-3.833,1.385.789,2.182,3.182-1.146.789,2.182-3.173,1.146,1.394,3.86-2.549.926Z" transform="translate(-15.221 -19.001)" fill="#c7c7c7"/>
      <path id="Pfad_121" data-name="Pfad 121" d="M108.428,21.366l-3.338-.385.266-2.311,9.371,1.073-.266,2.311-3.338-.385-.99,8.692-2.7-.3Z" transform="translate(-18.432 -18.67)" fill="#c7c7c7"/>
      <path id="Pfad_122" data-name="Pfad 122" d="M130.722,23.99l2.485,1.073-1.76,4.071,3.7,1.6,1.76-4.071,2.485,1.073L134.995,37.9l-2.485-1.073,1.724-3.979-3.7-1.6-1.724,3.979-2.485-1.073Z" transform="translate(-20.197 -19.112)" fill="#c7c7c7"/>
      <path id="Pfad_123" data-name="Pfad 123" d="M154.567,37.34l5.327,4.447-1.485,1.788-3.246-2.714-1.293,1.55,2.595,2.164-1.485,1.788L152.385,44.2l-1.339,1.6,3.411,2.852-1.485,1.788-5.5-4.585Z" transform="translate(-21.953 -20.221)" fill="#c7c7c7"/>
      <path id="Pfad_124" data-name="Pfad 124" d="M180.583,69.62l1.513,3.64c1.339,3.218.321,6.061-2.9,7.4s-6,.073-7.335-3.145l-1.513-3.64Zm-6.62,6.9c.724,1.733,2.191,2.366,4.154,1.55,1.944-.807,2.494-2.329,1.788-4.016l-.431-1.027-5.942,2.467Z" transform="translate(-23.854 -22.903)" fill="#c7c7c7"/>
      <path id="Pfad_125" data-name="Pfad 125" d="M188.362,95.45l.752,6.9-2.311.257-.458-4.209-2,.22.367,3.356-2.311.257-.367-3.356-2.081.229.486,4.42-2.311.257-.779-7.115Z" transform="translate(-24.435 -25.049)" fill="#c7c7c7"/>
      <path id="Pfad_126" data-name="Pfad 126" d="M179.039,123.438l.578-3.4-2.182-1.045.468-2.751,10.288,5.566-.477,2.815-11.553,1.861.468-2.751Zm6.428-.669s-1.146-.449-1.806-.761l-2.017-.99-.367,2.155,2.228-.248c.724-.083,1.953-.128,1.953-.128Z" transform="translate(-24.336 -26.776)" fill="#c7c7c7"/>
      <path id="Pfad_127" data-name="Pfad 127" d="M181.842,143.909l-1.164,2.448-7.9-3.759-1.944,4.089-2.1-1,3.108-6.538Z" transform="translate(-23.719 -28.68)" fill="#c7c7c7"/>
    </g>
    <g id="Gruppe_133" data-name="Gruppe 133" transform="translate(39.986 62.12)">
      <path id="Pfad_128" data-name="Pfad 128" d="M74.1,82.949c-.44-6.9-7.8-11.269-11.709-11.269-11.2,0-19.741,21.007-19.741,29.589,0,11.507,7.079,15.8,11.544,15.8,13.039,0,23.427-18.742,23.427-26.1A11.343,11.343,0,0,0,74.1,82.949Zm-18.9,24.39c-1.449,0-2.632-2.146-2.632-4.8a26.436,26.436,0,0,1,2.246-9.829,18.356,18.356,0,0,1,1.5-2.072,17.962,17.962,0,0,0,3.393-6.235,5.23,5.23,0,0,1,1.3-1.476,4.388,4.388,0,0,0,.147,1.33,4.433,4.433,0,0,0,1.586,2.356,7.683,7.683,0,0,1-.853,2.109,6.015,6.015,0,0,0-.908,4.062,5.221,5.221,0,0,0,3.943,4.245l.339.083C62.621,102.03,57.6,107.339,55.2,107.339Z" transform="translate(-42.65 -66.524)" fill="#c7c7c7"/>
      <path id="Pfad_129" data-name="Pfad 129" d="M97.75,101.84" transform="translate(-47.228 -69.03)" fill="#c7c7c7"/>
      <path id="Pfad_130" data-name="Pfad 130" d="M151.45,110.8a6.8,6.8,0,0,0-6.675-6.024h-.018c-.2-4.484-1.128-9.068-3.3-11.416-1.082-1.164-1.467-1.806-3.924-1.806-2.191,0-8.151,8.078-10.178,9.71.092-.165,5.043-7.271,5.126-7.418a4.6,4.6,0,0,0,.183-4.255,5.672,5.672,0,0,0-4.089-2.943c-2.017-.367-4.8.064-6.033,2.531A111.35,111.35,0,0,0,117.982,99.6a4.619,4.619,0,0,0-1.916,2.421c-1.109,1.348-5.263,5.2-8.738,5.868h-.018a4.451,4.451,0,0,1-3.3-2.036,1.04,1.04,0,0,1,.073-1.33c.642-.688,1.485-1.5,2.173-2.173a47.821,47.821,0,0,0,5.987-6.62c1.4-1.88,2.265-3.512,1.77-5.657-.578-2.522-1.174-4.9-4.658-5.364a20.327,20.327,0,0,0-2.622.5c-.917.321-3.833,1.916-3.833,1.916-6.061,3.869-8.188,6.859-11.718,10.9,1.21-3.411,1.99-6.373,3.539-8.491a24.631,24.631,0,0,1,2.54-2.861c4.227-4.575,5.942-6.813,7.895-10.517a7.181,7.181,0,0,0-.651-7.72,6.278,6.278,0,0,0-6.684-2.146h0a3.647,3.647,0,0,0-2.164,1.6h0c-8.784,14.4-17.421,33.137-16.917,42.49l.018.2a5,5,0,0,0,.422,1.495v.376a2.406,2.406,0,0,0,.8,1.779l.413.367a7.527,7.527,0,0,0,5.456,1.742,6.807,6.807,0,0,0,4.777-2.375c1.109-1.33,2.054-2.659,3.017-4.044,3.411,4.658,9.041,8.051,13.726,7.546a19.158,19.158,0,0,0,7.922-3.072,6.652,6.652,0,0,0,1.8,2.687,5.719,5.719,0,0,0,4.585,1.513c3.31-.413,5.447-3.457,8.151-7.317a55.229,55.229,0,0,1,4.924-6.327,39.763,39.763,0,0,1-.128,5.382,1.639,1.639,0,0,1-.385.917c-5.621,6.6-10.453,17.1-9.032,23.9.4,2.1,1.88,4.548,4.264,5.281a4.834,4.834,0,0,0,1.385.211,4.538,4.538,0,0,0,3.218-1.33c4.328-4.089,8.014-15.468,9.6-22.63.046-.018.055-.027.1-.046a4.9,4.9,0,0,0,4.034.468A5.686,5.686,0,0,0,151.45,110.8ZM100.937,96.171c5.061,0,2.457,3.438-4.759,4.346C96.169,100.518,98.415,96.171,100.937,96.171Zm31.212,32.982a8.86,8.86,0,0,1,2.1-7.849c.77-.862,3.448-3.1,3.448-3.1S132.818,133.187,132.149,129.153Z" transform="translate(-45.646 -66.057)" fill="#c7c7c7"/>
    </g>
  </g>
</svg>
