<svg xmlns="http://www.w3.org/2000/svg" width="267.77" height="55.125" viewBox="0 0 267.77 55.125">
  <g id="layer1" transform="translate(-12.548 177.386)">
    <g id="g8022" transform="translate(12.548 -176.856)">
      <path id="path8024" d="M-2440.133,35.31h10.88c4.319,0,6.8-1.889,6.8-6.2,0-3.718-3.2-5.3-6.388-5.3h-11.3Zm0-17.982h10.409c3.487,0,6.267-1.848,6.267-5.211,0-3.486-2.483-4.547-6.5-4.547h-10.172ZM-2448.647.253h20.638c10.405,0,13.071,6.49,13.071,10.858,0,6.08-3.433,7.791-5.207,8.676,5.207,1.949,6.564,6.078,6.564,10.27a12.289,12.289,0,0,1-3.666,8.735c-2.424,2.362-4.731,3.837-13.423,3.837h-17.977" transform="translate(2448.647 -0.253)" fill="#c7c7c7"/>
    </g>
    <g id="g8026" transform="translate(47.386 -166.701)">
      <path id="path8028" d="M-129.813-56.174c-6.386,0-7.571,5.549-7.571,9.56s1.185,9.56,7.571,9.56,7.571-5.545,7.571-9.56-1.185-9.56-7.571-9.56m0,26.086c-8.457,0-16.085-5.195-16.085-16.526s7.628-16.521,16.085-16.521,16.085,5.189,16.085,16.521-7.629,16.526-16.085,16.526" transform="translate(145.898 63.135)" fill="#c7c7c7"/>
    </g>
    <g id="g8030" transform="translate(79.287 -177.286)">
      <path id="path8032" d="M-230.779-118.313c-.7-2.479-2.042-7.154-9.281-7.154-4.2,0-10.388,2.768-10.388,14.487,0,7.445,3.089,14.185,10.388,14.14,4.843-.253,7.408-1.968,8.954-6.75h8.752c-1.25,7.169-6.9,14.253-17.878,14.253-11.143.292-19.143-7.446-19.143-21.76,0-14.485,8.461-21.876,19.258-21.876,12.551,0,17.626,8.541,18.094,14.66" transform="translate(259.375 132.973)" fill="#c7c7c7"/>
    </g>
    <g id="g8034" transform="translate(79.186 -177.386)">
      <path id="path8036" d="M-50.038-314.087c-3.927-3.815-6-9.675-6-16.944,0-13.432,7.341-21.774,19.158-21.774,13.269,0,17.552,9.4,17.983,14.463h-8.569c-.717-2.544-2.083-7.161-9.356-7.161-2.459,0-10.485,1.055-10.485,14.587,0,5.05,1.371,9.2,3.862,11.663a8.967,8.967,0,0,0,6.624,2.575c5.047-.261,7.5-2.1,9.019-6.747h8.566c-1.235,6.82-6.532,14.055-17.759,14.055a17.534,17.534,0,0,1-13.043-4.718m-.592-33.381c-3.669,3.873-5.609,9.556-5.609,16.437,0,7.32,2.1,13.23,6.064,17.085a17.713,17.713,0,0,0,13.181,4.775c11.423,0,16.823-7.722,17.975-14.333l.02-.115h-8.944l-.023.066c-1.487,4.611-3.892,6.422-8.859,6.678a8.773,8.773,0,0,1-6.48-2.518c-2.453-2.433-3.8-6.524-3.8-11.522,0-13.347,7.875-14.387,10.287-14.387,7.188,0,8.487,4.608,9.186,7.085l.021.07h8.935l-.007-.106c-.39-5.1-4.694-14.753-18.194-14.753a18.382,18.382,0,0,0-13.749,5.538" transform="translate(56.239 353.006)" fill="#c7c7c7"/>
    </g>
    <g id="g8038" transform="translate(114.898 -166.701)">
      <path id="path8040" d="M-129.824-56.174c-6.387,0-7.57,5.549-7.57,9.56s1.182,9.56,7.57,9.56,7.57-5.545,7.57-9.56-1.185-9.56-7.57-9.56m0,26.086c-8.455,0-16.087-5.195-16.087-16.526s7.632-16.521,16.087-16.521,16.084,5.189,16.084,16.521-7.629,16.526-16.084,16.526" transform="translate(145.911 63.135)" fill="#c7c7c7"/>
    </g>
    <g id="g8042" transform="translate(147.009 -166.706)">
      <path id="path8044" d="M-229.558-260.065h-8.28v-19.066c0-2.3-.118-6.2-5.38-6.2-3.669,0-6.506,2.479-6.506,7.258v18H-258v-31.4h7.925v4.606h.118a10.129,10.129,0,0,1,9.463-5.427c6.149,0,10.939,3.6,10.939,10.5Zm49.761-18.827c-.474-5.077-3.727-6.5-6.386-6.5-3.9,0-5.973,2.363-6.446,6.5Zm7.667,9.621c-2.522,7.568-7.964,10.031-13.347,10.031-8.87,0-15.668-4.25-15.668-17.176,0-3.775,1.3-15.874,15.081-15.874,6.206,0,14.781,2.95,14.781,17.293v1.474h-21.585c.239,2.364.711,7.674,7.391,7.674a4.641,4.641,0,0,0,4.831-3.422" transform="translate(258.003 292.29)" fill="#c7c7c7"/>
    </g>
    <g id="g8046" transform="translate(233.706 -166.702)">
      <path id="path8048" d="M-122.649-211.922c5.322,0,7.294-5.784,7.294-9.5,0-4.956-2.266-9.825-7.529-9.825-5.679,0-7.039,5.286-7.039,10.3,0,4.663,2.012,9.031,7.274,9.031m-7.274-20.891h.117c1.54-2.48,3.845-5.368,9.4-5.368,6.918,0,13.558,5.307,13.558,16.168,0,8.617-4.393,16.879-13.734,16.879-5.8,0-7.866-3.127-8.871-4.839h-.118v16.234h-8.28v-43.62h7.924" transform="translate(137.847 238.182)" fill="#c7c7c7"/>
    </g>
    <g id="g8050" transform="translate(175.401 -174.375)">
      <path id="path8052" d="M-805.166-68.553h5.147v6.108h-5.147v16.852c0,1.83.058,2.54,3.427,2.54.537,0,1.127-.061,1.72-.119v6.256c-1.3.061-2.6.118-3.906.118h-1.061c-7.154,0-8.459-2.712-8.459-6.788V-62.445h-5.208v-6.108h5.208v-8.495h8.28ZM-876.02-48.6c-.3,3.243-2.841,12.275-14.37,12.275-11.828,0-14.546-9.032-14.546-15.641,0-10.15,4.432-17.41,15.077-17.41,4.969,0,13.129,2.244,13.9,12.043h-8.4c-.356-2.066-1.659-5.315-5.5-5.078-5.2,0-6.564,5.193-6.564,9.088,0,3.423.121,10.21,6.387,10.21,4.2,0,5.618-4.011,5.618-5.487" transform="translate(904.937 77.047)" fill="#c7c7c7"/>
    </g>
  </g>
</svg>
