<svg id="Gruppe_129" data-name="Gruppe 129" xmlns="http://www.w3.org/2000/svg" xmlns:xlink="http://www.w3.org/1999/xlink" width="289.588" height="64.405" viewBox="0 0 289.588 64.405">
  <defs>
    <clipPath id="clip-path">
      <rect id="Rechteck_187" data-name="Rechteck 187" width="289.588" height="64.404" fill="#c7c7c7"/>
    </clipPath>
  </defs>
  <g id="Gruppe_128" data-name="Gruppe 128" clip-path="url(#clip-path)">
    <path id="Pfad_77" data-name="Pfad 77" d="M5.709,163.549l-1.9-.837a3.557,3.557,0,0,1-1.347-.909,1.839,1.839,0,0,1-.44-1.23,1.884,1.884,0,0,1,.568-1.393,2.078,2.078,0,0,1,1.461-.542,2.175,2.175,0,0,1,1.265.386,3.393,3.393,0,0,1,.986,1.14l1.3-.837a3.452,3.452,0,0,0-1.364-1.5,4.079,4.079,0,0,0-2.077-.508,4,4,0,0,0-2.7.938,3.074,3.074,0,0,0-1.039,2.334,3.391,3.391,0,0,0,.648,2.086,4.612,4.612,0,0,0,1.973,1.43l1.619.688A3.843,3.843,0,0,1,6.217,165.9a2.452,2.452,0,0,1,.516,1.553A2.387,2.387,0,0,1,6,169.237a2.763,2.763,0,0,1-1.931.693,2.379,2.379,0,0,1-1.677-.621,3.58,3.58,0,0,1-.964-1.835L0,168.181a4.024,4.024,0,0,0,1.436,2.282,4.275,4.275,0,0,0,2.636.8,4.367,4.367,0,0,0,3.092-1.122,3.979,3.979,0,0,0,1.166-2.95,3.633,3.633,0,0,0-.655-2.172,4.521,4.521,0,0,0-1.966-1.474" transform="translate(0 -107.048)" fill="#c7c7c7" fill-rule="evenodd"/>
    <path id="Pfad_78" data-name="Pfad 78" d="M38.81,156.679,32.785,170.5H34.5l1.729-4.073h5.188l1.729,4.073h1.711Zm0,3.5,2.12,4.893H36.69Z" transform="translate(-22.309 -106.612)" fill="#c7c7c7" fill-rule="evenodd"/>
    <path id="Pfad_79" data-name="Pfad 79" d="M80.692,170.5h1.579v-9.987l9.653,10.508V157.2H90.345v10.1l-9.653-10.62Z" transform="translate(-54.907 -106.613)" fill="#c7c7c7" fill-rule="evenodd"/>
    <rect id="Rechteck_185" data-name="Rechteck 185" width="1.579" height="13.296" transform="translate(42.079 50.587)" fill="#c7c7c7"/>
    <path id="Pfad_80" data-name="Pfad 80" d="M152.531,171.605h7.01v-1.467H154.11v-5.1h5.431v-1.467H154.11v-3.815h5.431v-1.449h-7.01Z" transform="translate(-103.79 -107.722)" fill="#c7c7c7" fill-rule="evenodd"/>
    <path id="Pfad_81" data-name="Pfad 81" d="M190.259,159.641h1.172a4.424,4.424,0,0,1,2.343.428,2.02,2.02,0,0,1,.765,1.88,1.818,1.818,0,0,1-.772,1.761,4.817,4.817,0,0,1-2.336.379h-1.172ZM188.68,171.6h1.579v-6.342h.186L195.3,171.6h2.008l-5.077-6.342h.279a3.814,3.814,0,0,0,2.673-.847,3.229,3.229,0,0,0,.915-2.481,4.414,4.414,0,0,0-.336-1.744,3.045,3.045,0,0,0-.908-1.213,2.986,2.986,0,0,0-1.358-.571,10.022,10.022,0,0,0-1.693-.1H188.68Z" transform="translate(-128.387 -107.717)" fill="#c7c7c7" fill-rule="evenodd"/>
    <path id="Pfad_82" data-name="Pfad 82" d="M225.471,158.309v8.276a5.635,5.635,0,0,0,1.278,4.033,6.266,6.266,0,0,0,7.747,0,5.634,5.634,0,0,0,1.278-4.033v-8.276h-1.579v8.276a4.329,4.329,0,0,1-.865,2.951,4.321,4.321,0,0,1-5.421,0,4.269,4.269,0,0,1-.858-2.951v-8.276Z" transform="translate(-153.422 -107.722)" fill="#c7c7c7" fill-rule="evenodd"/>
    <path id="Pfad_83" data-name="Pfad 83" d="M273.378,170.5h1.579v-9.987l9.653,10.508V157.2h-1.579v10.1l-9.653-10.62Z" transform="translate(-186.02 -106.613)" fill="#c7c7c7" fill-rule="evenodd"/>
    <path id="Pfad_84" data-name="Pfad 84" d="M330.314,164.111v1.411h3.8a4.637,4.637,0,0,1-1.479,3.164,4.872,4.872,0,0,1-3.321,1.21,5.092,5.092,0,0,1-3.742-1.523,5.544,5.544,0,0,1-1.467-3.908,5.92,5.92,0,0,1,1.447-4.091,5.344,5.344,0,0,1,6.244-.963,4.919,4.919,0,0,1,1.8,1.817l1.32-1.061a5.917,5.917,0,0,0-2.345-2.1,7.424,7.424,0,0,0-3.309-.69,7.644,7.644,0,0,0-2.628.432,5.977,5.977,0,0,0-2.1,1.3,6.562,6.562,0,0,0-1.6,2.358,8.047,8.047,0,0,0-.532,3,7.285,7.285,0,0,0,.894,3.606,6.373,6.373,0,0,0,2.526,2.476,6.248,6.248,0,0,0,1.514.571,7.838,7.838,0,0,0,1.835.209A6.613,6.613,0,0,0,334,169.531a6.849,6.849,0,0,0,1.8-4.974v-.446Z" transform="translate(-219.372 -107.088)" fill="#c7c7c7" fill-rule="evenodd"/>
    <path id="Pfad_85" data-name="Pfad 85" d="M377.511,171.605h7.01v-1.467h-5.431v-5.1h5.431v-1.467h-5.431v-3.815h5.431v-1.449h-7.01Z" transform="translate(-256.878 -107.722)" fill="#c7c7c7" fill-rule="evenodd"/>
    <path id="Pfad_86" data-name="Pfad 86" d="M413.66,170.5h1.579v-9.987l9.653,10.508V157.2h-1.579v10.1l-9.653-10.62Z" transform="translate(-281.475 -106.613)" fill="#c7c7c7" fill-rule="evenodd"/>
    <path id="Pfad_87" data-name="Pfad 87" d="M487.415,158.309v8.276a5.635,5.635,0,0,0,1.278,4.033,6.266,6.266,0,0,0,7.746,0,5.634,5.634,0,0,0,1.278-4.033v-8.276h-1.579v8.276a4.329,4.329,0,0,1-.865,2.951,4.321,4.321,0,0,1-5.421,0,4.269,4.269,0,0,1-.858-2.951v-8.276Z" transform="translate(-331.662 -107.722)" fill="#c7c7c7" fill-rule="evenodd"/>
    <path id="Pfad_88" data-name="Pfad 88" d="M536.9,159.641h1.172a4.424,4.424,0,0,1,2.343.428,2.019,2.019,0,0,1,.765,1.88,1.817,1.817,0,0,1-.772,1.761,4.817,4.817,0,0,1-2.336.379H536.9ZM535.322,171.6H536.9v-6.342h.186l4.856,6.342h2.008l-5.077-6.342h.279a3.815,3.815,0,0,0,2.673-.847,3.23,3.23,0,0,0,.915-2.481,4.415,4.415,0,0,0-.336-1.744,3.047,3.047,0,0,0-.908-1.213,2.99,2.99,0,0,0-1.358-.571,10.022,10.022,0,0,0-1.693-.1h-3.123Z" transform="translate(-364.26 -107.717)" fill="#c7c7c7" fill-rule="evenodd"/>
    <path id="Pfad_89" data-name="Pfad 89" d="M573.866,159.679h1.191a4.3,4.3,0,0,1,2.324.435,2.034,2.034,0,0,1,.746,1.873,1.827,1.827,0,0,1-.733,1.677,4.31,4.31,0,0,1-2.338.463h-1.209Zm0,5.691h1.656a8.237,8.237,0,0,1,1.112.051,2.365,2.365,0,0,1,.917.3,2.028,2.028,0,0,1,.821.842,2.709,2.709,0,0,1,.277,1.261,2.786,2.786,0,0,1-.235,1.144,2.009,2.009,0,0,1-.64.81,2.421,2.421,0,0,1-1.1.377,12.71,12.71,0,0,1-1.617.07h-1.191Zm-1.579,6.231h2.77a13.326,13.326,0,0,0,2.433-.146,3.233,3.233,0,0,0,1.734-.856,3.677,3.677,0,0,0,.8-1.225,4.139,4.139,0,0,0,.3-1.547,3.542,3.542,0,0,0-.687-2.216,2.854,2.854,0,0,0-1.859-1.057,2.665,2.665,0,0,0,1.459-.985,2.969,2.969,0,0,0,.511-1.767,3.774,3.774,0,0,0-.355-1.63,3.161,3.161,0,0,0-.982-1.2,3.257,3.257,0,0,0-1.444-.564,12.076,12.076,0,0,0-1.905-.1h-2.77Z" transform="translate(-389.413 -107.718)" fill="#c7c7c7" fill-rule="evenodd"/>
    <path id="Pfad_90" data-name="Pfad 90" d="M611.144,156.679,605.119,170.5h1.711l1.729-4.073h5.188l1.729,4.073h1.711Zm0,3.5,2.12,4.893h-4.24Z" transform="translate(-411.754 -106.612)" fill="#c7c7c7" fill-rule="evenodd"/>
    <path id="Pfad_91" data-name="Pfad 91" d="M653.027,170.5h1.579v-9.987l9.653,10.508V157.2H662.68v10.1l-9.653-10.62Z" transform="translate(-444.353 -106.613)" fill="#c7c7c7" fill-rule="evenodd"/>
    <path id="Pfad_92" data-name="Pfad 92" d="M732.958,164.111v1.411h3.8a4.637,4.637,0,0,1-1.479,3.164,4.872,4.872,0,0,1-3.321,1.21,5.092,5.092,0,0,1-3.742-1.523,5.544,5.544,0,0,1-1.467-3.908,5.92,5.92,0,0,1,1.447-4.091,5.344,5.344,0,0,1,6.244-.963,4.917,4.917,0,0,1,1.8,1.817l1.32-1.061a5.917,5.917,0,0,0-2.345-2.1,7.423,7.423,0,0,0-3.309-.69,7.646,7.646,0,0,0-2.628.432,5.978,5.978,0,0,0-2.1,1.3,6.567,6.567,0,0,0-1.6,2.358,8.047,8.047,0,0,0-.532,3,7.286,7.286,0,0,0,.894,3.606,6.372,6.372,0,0,0,2.526,2.476,6.246,6.246,0,0,0,1.514.571,7.84,7.84,0,0,0,1.835.209,6.612,6.612,0,0,0,4.84-1.794,6.849,6.849,0,0,0,1.8-4.974v-.446Z" transform="translate(-493.352 -107.088)" fill="#c7c7c7" fill-rule="evenodd"/>
    <path id="Pfad_93" data-name="Pfad 93" d="M783.9,171.017l4.11-9.559L789.7,170.5h1.543l-2.7-13.817L783.9,167.671l-4.649-10.992-2.7,13.817H778.1l1.674-9.038Z" transform="translate(-528.406 -106.612)" fill="#c7c7c7" fill-rule="evenodd"/>
    <path id="Pfad_94" data-name="Pfad 94" d="M836.34,159.679h1.191a4.3,4.3,0,0,1,2.324.435,2.035,2.035,0,0,1,.746,1.873,1.826,1.826,0,0,1-.733,1.677,4.309,4.309,0,0,1-2.338.463h-1.209Zm0,5.691H838a8.237,8.237,0,0,1,1.112.051,2.365,2.365,0,0,1,.917.3,2.029,2.029,0,0,1,.821.842,2.71,2.71,0,0,1,.277,1.261,2.782,2.782,0,0,1-.235,1.144,2.009,2.009,0,0,1-.64.81,2.421,2.421,0,0,1-1.1.377,12.711,12.711,0,0,1-1.617.07H836.34Zm-1.579,6.231h2.77a13.325,13.325,0,0,0,2.433-.146,3.233,3.233,0,0,0,1.734-.856,3.677,3.677,0,0,0,.8-1.225,4.137,4.137,0,0,0,.3-1.547,3.542,3.542,0,0,0-.687-2.216,2.854,2.854,0,0,0-1.859-1.057,2.665,2.665,0,0,0,1.459-.985,2.97,2.97,0,0,0,.511-1.767,3.77,3.77,0,0,0-.355-1.63,3.162,3.162,0,0,0-.982-1.2,3.255,3.255,0,0,0-1.444-.564,12.077,12.077,0,0,0-1.905-.1h-2.77Z" transform="translate(-568.014 -107.718)" fill="#c7c7c7" fill-rule="evenodd"/>
    <path id="Pfad_95" data-name="Pfad 95" d="M873.3,171.605h1.579v-6.677h7.07v6.677h1.579v-13.3h-1.579v5.115h-7.07v-5.115H873.3Z" transform="translate(-594.236 -107.722)" fill="#c7c7c7" fill-rule="evenodd"/>
    <rect id="Rechteck_186" data-name="Rechteck 186" width="288.497" height="1.29" transform="translate(0.112 42.767)" fill="#c7c7c7"/>
    <path id="Pfad_96" data-name="Pfad 96" d="M.935,28.427v24.65h6.9V42.112A14.435,14.435,0,0,1,8.529,36.9a5.536,5.536,0,0,1,5.2-3.489,4.6,4.6,0,0,1,2.619.725,4.342,4.342,0,0,1,1.625,2.209,15.23,15.23,0,0,1,.542,4.792v11.94h6.927V41.953a14.1,14.1,0,0,1,.68-5.132,5.451,5.451,0,0,1,2.078-2.5,5.683,5.683,0,0,1,3.161-.906A4.138,4.138,0,0,1,34.838,34.9Q36,36.38,36,40.571V53.077h6.927V38.623a15.513,15.513,0,0,0-.97-6.412,7.383,7.383,0,0,0-3.186-3.195,10.464,10.464,0,0,0-5.138-1.223,11.945,11.945,0,0,0-5.2,1.133,10.767,10.767,0,0,0-4.017,3.308,8.573,8.573,0,0,0-3.325-3.308,9.474,9.474,0,0,0-4.634-1.133,12.542,12.542,0,0,0-4.7.861,11.735,11.735,0,0,0-3.917,2.606V28.427Z" transform="translate(-0.636 -18.912)" fill="#c7c7c7" fill-rule="evenodd"/>
    <path id="Pfad_97" data-name="Pfad 97" d="M166.67,33.5a7.636,7.636,0,0,1,5.415,1.994,6.791,6.791,0,0,1,2.141,5.211,6.983,6.983,0,0,1-2.141,5.313,7.529,7.529,0,0,1-5.39,2.028,7.375,7.375,0,0,1-5.3-2.062,6.96,6.96,0,0,1-2.154-5.256,6.886,6.886,0,0,1,2.116-5.2A7.375,7.375,0,0,1,166.67,33.5m7.229-5.075v2.719a12.436,12.436,0,0,0-8.64-3.353,12.646,12.646,0,0,0-12.871,13,12.217,12.217,0,0,0,3.879,9.21,12.863,12.863,0,0,0,9.194,3.7,12.435,12.435,0,0,0,4.4-.759,13.664,13.664,0,0,0,4.043-2.481v2.605h6.851V28.427Z" transform="translate(-103.693 -18.912)" fill="#c7c7c7" fill-rule="evenodd"/>
    <path id="Pfad_98" data-name="Pfad 98" d="M266.025,29.778V40.041q0,5.913.806,8.156a9.652,9.652,0,0,0,3.917,5.052,13.165,13.165,0,0,0,7.292,1.812,13.591,13.591,0,0,0,6.851-1.552,9.954,9.954,0,0,0,4.081-4.452q1.133-2.379,1.133-8.836V29.778h-6.9V41.854a15.031,15.031,0,0,1-.428,4.554A4.391,4.391,0,0,1,281,48.571a5.448,5.448,0,0,1-2.909.737,5.255,5.255,0,0,1-2.884-.748,4.26,4.26,0,0,1-1.7-2.1,14.9,14.9,0,0,1-.529-4.814V29.778Z" transform="translate(-181.017 -20.262)" fill="#c7c7c7" fill-rule="evenodd"/>
    <path id="Pfad_99" data-name="Pfad 99" d="M384.009,37.671H369.123a8.177,8.177,0,0,1,2.519-3.195,8.842,8.842,0,0,1,5.037-1.45,8.384,8.384,0,0,1,4.647,1.291,6.275,6.275,0,0,1,2.683,3.353m6.9,4.871.025-1.178a12.733,12.733,0,0,0-4.055-9.844,14.947,14.947,0,0,0-10.529-3.727,14.382,14.382,0,0,0-10.138,3.727,12.2,12.2,0,0,0-4.043,9.368,11.828,11.828,0,0,0,4.055,9.165,15.081,15.081,0,0,0,10.5,3.659,17.777,17.777,0,0,0,7.179-1.325A13.353,13.353,0,0,0,389.1,48.3L383.3,45.85a9.722,9.722,0,0,1-6.625,2.424,8.621,8.621,0,0,1-5.3-1.552,6.474,6.474,0,0,1-2.557-4.18Z" transform="translate(-246.44 -18.912)" fill="#c7c7c7" fill-rule="evenodd"/>
    <path id="Pfad_100" data-name="Pfad 100" d="M467.691,28.427v24.65h6.826V43.109l-.025-1.2q0-5.166,1.1-6.933a3.154,3.154,0,0,1,2.683-1.767,5.125,5.125,0,0,1,1.99.544l2.141-5.324a7.013,7.013,0,0,0-2.8-.634,6.632,6.632,0,0,0-3.476.952,6.837,6.837,0,0,0-2.544,2.786v-3.1Z" transform="translate(-318.241 -18.912)" fill="#c7c7c7" fill-rule="evenodd"/>
    <path id="Pfad_101" data-name="Pfad 101" d="M518.085,29.778l9.874,24.65h4.307l6.02-14.047,5.844,14.047h4.358l10-24.65h-6.776L546.2,43.644l-5.819-13.866h-4.106L530.326,43.8,524.81,29.778Z" transform="translate(-352.531 -20.263)" fill="#c7c7c7" fill-rule="evenodd"/>
    <path id="Pfad_102" data-name="Pfad 102" d="M677.815,37.671H662.929a8.177,8.177,0,0,1,2.519-3.195,8.842,8.842,0,0,1,5.037-1.45,8.384,8.384,0,0,1,4.647,1.291,6.275,6.275,0,0,1,2.683,3.353m6.9,4.871.025-1.178a12.733,12.733,0,0,0-4.055-9.844,14.947,14.947,0,0,0-10.529-3.727A14.382,14.382,0,0,0,660.02,31.52a12.2,12.2,0,0,0-4.043,9.368,11.828,11.828,0,0,0,4.055,9.165,15.081,15.081,0,0,0,10.5,3.659,17.777,17.777,0,0,0,7.179-1.325A13.351,13.351,0,0,0,682.9,48.3L677.11,45.85a9.722,9.722,0,0,1-6.625,2.424,8.622,8.622,0,0,1-5.3-1.552,6.475,6.475,0,0,1-2.557-4.18Z" transform="translate(-446.36 -18.912)" fill="#c7c7c7" fill-rule="evenodd"/>
    <path id="Pfad_103" data-name="Pfad 103" d="M761.5,28.427v24.65h6.826V43.109l-.025-1.2q0-5.166,1.1-6.933a3.155,3.155,0,0,1,2.683-1.767,5.124,5.124,0,0,1,1.99.544l2.141-5.324a7.012,7.012,0,0,0-2.8-.634,6.632,6.632,0,0,0-3.476.952,6.837,6.837,0,0,0-2.544,2.786v-3.1Z" transform="translate(-518.161 -18.912)" fill="#c7c7c7" fill-rule="evenodd"/>
    <path id="Pfad_104" data-name="Pfad 104" d="M821.582,0V34.166h6.876V22.815L840.1,34.166h8.539L835.41,21.342,847.2,9.515h-8.614L828.458,19.688V0Z" transform="translate(-559.046 0)" fill="#c7c7c7" fill-rule="evenodd"/>
  </g>
</svg>
