<svg xmlns="http://www.w3.org/2000/svg" width="193.3" height="193.3" xml:space="preserve"><path fill-rule="evenodd" clip-rule="evenodd" d="M99.9 76.6V41.9l4.5-4.5h-14l4.5 4.5v34.7zm0 11.3v31.6l4.5 4.5h-14l4.5-4.5V87.9l-4.5-4.5h14z"/><path fill-rule="evenodd" clip-rule="evenodd" d="M54.2 73.2h86.7v5H54.2zm-.1 28h86.7v5H54.1z"/><path d="M50.4 32.7h95v96.1h-96v-96h1zm93 2.1h-92v92h92v-92z"/><path fill-rule="evenodd" clip-rule="evenodd" d="M54.2 75.7h7l-7-7zm86.6 0h-7l7-7zm-5 12.2v31.6l-4.6 4.5h9.5V83.4h-9.5zm-76.8 0v31.6l4.6 4.5h-9.5V83.4h9.5z"/><path d="M1 142v-1.3h7.3v1.4h-3v12H4v-12H1zm10.4-1.3h1.3v5.7h6.8v-5.7H21v13.5h-1.4v-6.5h-6.8v6.5h-1.3v-13.5zm13.9 0H33v1.4h-6.4v4.2H33v1.3h-6.3v5.3H33v1.3h-7.6v-13.5zm16.3 0h1.3v5.7h6.9v-5.7H51v13.5h-1.4v-6.5H43v6.5h-1.3v-13.5zm13.9 0h7.7v1.4h-6.4v4.2h6.3v1.3h-6.3v5.3h6.3v1.3h-7.6v-13.5zm11.2 0h2.7l3 .2c.8.2 1.4.6 2 1.2.4.6.7 1.3.7 2.2 0 .7-.2 1.4-.5 2-.4.5-.9 1-1.5 1.2-.6.3-1.5.4-2.7.4l4.9 6.3h-1.7l-4.8-6.3H68v6.3h-1.3v-13.5zm1.3 1.4v4.5h2.3c1 0 1.6 0 2-.2a2 2 0 0 0 1-.8 2.3 2.3 0 0 0 0-2.5c-.2-.4-.5-.7-1-.8l-2-.2H68zm17.5-1.7c2 0 3.7.7 5.1 2s2 3 2 5-.6 3.7-2 5a7.1 7.1 0 0 1-10 0 6.5 6.5 0 0 1-2.1-4.9 7.2 7.2 0 0 1 3.5-6.2c1-.6 2.2-.9 3.5-.9zm0 1.3c-1 0-1.9.3-2.8.8a5.6 5.6 0 0 0-2.8 5c0 1.6.5 3 1.6 4s2.5 1.7 4 1.7a5.8 5.8 0 0 0 5-2.8c.5-.9.8-1.9.8-3 0-1-.3-2-.8-2.8a5.6 5.6 0 0 0-2-2.1c-1-.5-2-.8-3-.8zm11-1h1.3V153h5.2v1.3h-6.5v-13.5zm9.7 13.5v-13.5h2.8c2 0 3.5.2 4.4.5a6 6 0 0 1 3 2.4 7.2 7.2 0 0 1 1.2 4c0 1.4-.3 2.6-1 3.6s-1.3 1.8-2.2 2.2c-1 .5-2.2.8-3.9.8h-4.3zm1.3-1.3h1.6c1.8 0 3.1-.1 3.8-.3 1-.4 1.8-1 2.4-1.8.6-.9.9-2 .9-3.2 0-1.2-.3-2.4-1-3.3a5 5 0 0 0-2.6-1.9c-.8-.2-2.2-.4-4.1-.4h-1v11zm18.9-12.2h1.4v5.7h6.8v-5.7h1.4v13.5h-1.4v-6.5h-6.8v6.5h-1.4v-13.5zm20.3-.3a7 7 0 0 1 7.2 7 7 7 0 0 1-7 7c-2 .1-3.7-.6-5-2a6.2 6.2 0 0 1-2.1-4.9 7.2 7.2 0 0 1 3.4-6.2c1.1-.6 2.3-.9 3.5-.9zm.1 1.3c-1 0-2 .3-2.8.8a5.6 5.6 0 0 0-2.9 5c0 1.6.6 3 1.7 4s2.4 1.7 4 1.7a5.7 5.7 0 0 0 5-2.8 6 6 0 0 0 .7-3c0-1-.2-2-.7-2.8a5.6 5.6 0 0 0-2.1-2.1c-1-.5-1.9-.8-2.9-.8zm10.3 12.5 2-13.5h.1l5.5 11 5.4-11h.2l2 13.5H171l-1.4-9.6-4.7 9.6h-.4l-4.8-9.7-1.3 9.7h-1.3zm18.9-13.5h7.7v1.4h-6.3v4.2h6.3v1.3h-6.3v5.3h6.3v1.3H176v-13.5zm9.8 11 1.1-.7c.8 1.5 1.8 2.2 2.8 2.2.5 0 .9-.1 1.3-.3a2.2 2.2 0 0 0 1.2-2c0-.4-.1-.9-.5-1.3a11 11 0 0 0-2.3-2.2c-1-.8-1.8-1.4-2-1.8-.5-.6-.8-1.3-.8-2 0-.6.2-1.2.5-1.6s.6-1 1.1-1.2 1.1-.4 1.7-.4a4 4 0 0 1 1.8.5 6 6 0 0 1 1.7 1.7l-1 .8-1.4-1.3c-.4-.3-.7-.3-1.1-.3-.6 0-1 .2-1.4.5-.3.3-.5.7-.5 1.2 0 .3 0 .6.2.8l.7 1 1.7 1.3c1.2.8 2 1.6 2.4 2.3.4.6.7 1.3.7 2 0 1-.4 1.8-1.2 2.5-.7.8-1.6 1.1-2.7 1.1a4 4 0 0 1-2.2-.6 6 6 0 0 1-1.8-2.2zm-183.3 7h2.4c.3.2.6.3.8.6s.3.6.3 1c0 .2 0 .5-.2.8l-.6.5-1.1.2 2 2.6h-.7l-2-2.6H3v2.6h-.5v-5.7zm.5.6v2h1l.9-.2c.2 0 .3-.2.4-.3a1 1 0 0 0 0-1 .9.9 0 0 0-.4-.4l-.8-.1H3zm8.2-.6h3.3v.6h-2.7v1.8h2.7v.5h-2.7v2.3h2.7v.5h-3.3v-5.7zm10.6 0 2.6 5.7h-.6l-.9-1.9h-2.4l-1 2H19l2.7-5.8h.2zm-.1 1.2-1 2h2l-1-2zm7.6-1.2h.5v5.2H32v.5h-2.7v-5.7zm13.9 0h3.3v.6h-2.7v1.8h2.6v.5h-2.6v2.3h2.6v.5h-3.2v-5.7zm7.6 4.7.5-.3c.3.6.7 1 1.2 1l.5-.2a1 1 0 0 0 .5-.9c0-.2 0-.3-.2-.5-.1-.3-.5-.6-1-1a5 5 0 0 1-.8-.7l-.3-.9.1-.7.5-.5.8-.1c.2 0 .5 0 .7.2l.7.7-.4.4-.6-.6a1 1 0 0 0-.5-.1c-.2 0-.4 0-.5.2-.2.1-.2.3-.2.5v.3c0 .2.2.3.3.4l.8.6 1 1c.2.3.2.5.2.8 0 .4-.1.8-.4 1.1-.3.3-.7.5-1.2.5l-1-.3c-.3-.2-.5-.5-.7-1zm7.9-4.1v-.6H62v.6h-1.3v5.1H60v-5.1h-1.3zm10.3-.6 2.6 5.7H71l-.9-1.9h-2.4l-1 2h-.6l2.7-5.8h.2zm-.1 1.2-1 2h2l-1-2zm7-.6v-.6H79v.6h-1.2v5.1h-.6v-5.1h-1.3zm7.9-.6h3.3v.6h-2.7v1.8H87v.5h-2.6v2.3H87v.5h-3.2v-5.7zm14.5 5.7v-5.7h1.2a6 6 0 0 1 1.9.2c.5.2 1 .6 1.2 1s.5 1 .5 1.7c0 .6-.1 1.1-.4 1.5s-.5.8-1 1c-.3.2-.9.3-1.6.3h-1.8zm.6-.5h.6c.8 0 1.4 0 1.7-.2.4-.1.7-.4 1-.7.2-.4.3-.8.3-1.4 0-.5-.1-1-.4-1.4a2 2 0 0 0-1-.8l-1.8-.1h-.4v4.6zm9.3-5.2h3.2v.6h-2.7v1.8h2.7v.5h-2.7v2.3h2.7v.5h-3.2v-5.7zm7.8 0h.6l1.9 4.4 1.9-4.4h.6l-2.5 5.7h-.1l-2.4-5.7zm10 0h3.2v.6h-2.7v1.8h2.7v.5h-2.7v2.3h2.7v.5h-3.3v-5.7zm8.1 0h.6v5.2h2.2v.5H134v-5.7zm10.4-.1a3 3 0 0 1 3 3c0 .8-.3 1.5-.9 2-.5.7-1.3 1-2 1a3 3 0 0 1-2.2-1c-.6-.5-1-1.2-1-2a3 3 0 0 1 1.6-2.6 3 3 0 0 1 1.5-.4zm0 .5a2 2 0 0 0-1.2.4l-.9.8c-.2.4-.3.8-.3 1.3 0 .7.2 1.2.7 1.7.5.5 1 .7 1.7.7a2.4 2.4 0 0 0 2.1-1.2l.3-1.2c0-.5 0-.9-.3-1.3s-.5-.6-.9-.8-.8-.4-1.2-.4zm8.1-.4h1.1l1.4.1c.3 0 .5.2.7.5.3.2.4.6.4 1l-.3.9a2 2 0 0 1-.9.5h-1.8v2.7h-.6v-5.7zm.6.6v2h1l.8-.2c.2 0 .3-.2.4-.3l.2-.6c0-.2 0-.3-.2-.5a.9.9 0 0 0-.4-.3l-.8-.1h-1zm7.8 5.1.8-5.7h.1l2.3 4.7 2.3-4.7h.1l.8 5.7h-.5l-.6-4-2 4h-.2l-2-4-.6 4h-.5zm11.5-5.7h3.3v.6H173v1.8h2.7v.5H173v2.3h2.7v.5h-3.3v-5.7zm8.2 5.7v-5.7h.1l3.8 4.4v-4.4h.6v5.7h-.1l-3.8-4.3v4.3h-.6zm9.3-5.1v-.6h3.1v.6h-1.3v5.1h-.6v-5.1H190z"/></svg>